<?xml version="1.0" encoding="UTF-8"?>
<svg id="Capa_2" data-name="Capa 2" xmlns="http://www.w3.org/2000/svg" viewBox="0 0 40 40">
  <g id="content">
    <g>
      <rect width="40" height="40" rx="5" ry="5" fill="#e1f0ff"/>
      <path d="M12.085,28.402c-.13,0-.252-.051-.344-.142-.123-.124-.171-.305-.124-.473l1.359-4.906c.022-.081,.065-.155,.125-.214l10.333-10.333c.475-.475,1.106-.736,1.777-.736s1.302,.261,1.777,.736l.68,.68c.977,.98,.977,2.574,0,3.554l-10.333,10.333c-.059,.059-.133,.102-.214,.125l-4.906,1.359c-.042,.012-.086,.018-.129,.018h0Zm.697-1.182l3.329-.922-2.406-2.407-.922,3.329Zm1.382-4.242l2.86,2.86,8.59-8.59-2.86-2.86-8.59,8.59Zm11.047-10.408c-.412,0-.799,.16-1.09,.451l-.681,.681,2.86,2.86,.68-.68c.6-.601,.6-1.579,0-2.181l-.68-.68c-.291-.291-.678-.451-1.09-.451Z" fill="#0551d7"/>
    </g>
  </g>
</svg>