<?xml version="1.0" encoding="UTF-8"?>
<svg id="Capa_2" data-name="Capa 2" xmlns="http://www.w3.org/2000/svg" viewBox="0 0 12.704 11.424">
  <g id="content">
    <path d="M.735,5.296c-.49-.565-.735-1.307-.735-2.225S.245,1.413,.735,.848c.491-.565,1.137-.848,1.937-.848s1.448,.279,1.943,.84c.496,.56,.744,1.304,.744,2.231s-.248,1.672-.744,2.232c-.495,.56-1.144,.84-1.943,.84s-1.445-.282-1.937-.848Zm2.952-.784c.24-.342,.36-.821,.36-1.44s-.12-1.099-.36-1.439c-.24-.342-.578-.513-1.016-.513-.416,0-.75,.174-1,.521-.251,.347-.376,.824-.376,1.432s.125,1.086,.376,1.433c.25,.347,.584,.52,1,.52,.438,0,.775-.171,1.016-.512ZM9.392,.111h1.568L3.312,11.312H1.744L9.392,.111Zm-1.312,10.464c-.491-.564-.736-1.307-.736-2.224s.245-1.658,.736-2.224c.49-.565,1.136-.849,1.936-.849s1.448,.283,1.944,.849,.744,1.307,.744,2.224-.248,1.659-.744,2.224c-.496,.565-1.145,.849-1.944,.849s-1.445-.283-1.936-.849Zm2.943-.792c.245-.346,.368-.823,.368-1.432s-.123-1.085-.368-1.432-.581-.521-1.008-.521-.763,.171-1.008,.512c-.246,.342-.368,.822-.368,1.44s.122,1.099,.368,1.44c.245,.341,.581,.512,1.008,.512s.763-.174,1.008-.521Z" fill="#0551d7"/>
  </g>
</svg>