<?xml version="1.0" encoding="UTF-8"?>
<svg id="Capa_2" data-name="Capa 2" xmlns="http://www.w3.org/2000/svg" viewBox="0 0 40 40">
  <g id="content">
    <g>
      <rect x="0" y="0" width="40" height="40" rx="5" ry="5" fill="#e1f0ff"/>
      <g>
        <path d="M32.821,19.495c-.232-.317-5.76-7.771-12.821-7.771s-12.589,7.454-12.821,7.771c-.22,.301-.22,.709,0,1.011,.232,.317,5.76,7.771,12.821,7.771s12.589-7.454,12.821-7.771c.22-.301,.22-.71,0-1.011Z" fill="none" stroke="#0551d7" stroke-miterlimit="10"/>
        <path d="M20,14.863c-2.833,0-5.137,2.305-5.137,5.137s2.305,5.137,5.137,5.137,5.137-2.305,5.137-5.137-2.305-5.137-5.137-5.137Z" fill="none" stroke="#0551d7" stroke-miterlimit="10"/>
      </g>
    </g>
  </g>
</svg>