<?xml version="1.0" encoding="utf-8"?>
<!-- Generator: Adobe Illustrator 26.5.0, SVG Export Plug-In . SVG Version: 6.00 Build 0)  -->
<svg version="1.1" id="Capa_2_00000157300769965471588220000017503317642198372797_"
	 xmlns="http://www.w3.org/2000/svg" xmlns:xlink="http://www.w3.org/1999/xlink" x="0px" y="0px" viewBox="0 0 31.664 20"
	 enable-background="new 0 0 31.664 20" xml:space="preserve">
<g id="content">
	<g>
		<g>
			
				<line fill="none" stroke="#FFFFFF" stroke-linecap="round" stroke-miterlimit="10" x1="27.784" y1="7.707" x2="27.784" y2="14.465"/>
			
				<line fill="none" stroke="#FFFFFF" stroke-linecap="round" stroke-miterlimit="10" x1="24.405" y1="11.086" x2="31.164" y2="11.086"/>
		</g>
		<g>
			<line fill="none" stroke="#FFFFFF" stroke-miterlimit="10" x1="0.5" y1="3.676" x2="21.494" y2="3.676"/>
			<line fill="none" stroke="#FFFFFF" stroke-miterlimit="10" x1="4.193" y1="13.961" x2="17.801" y2="13.961"/>
			<line fill="none" stroke="#FFFFFF" stroke-miterlimit="10" x1="4.193" y1="16.769" x2="10.653" y2="16.769"/>
			<rect x="4.193" y="6.926" fill="none" stroke="#FFFFFF" stroke-miterlimit="10" width="13.664" height="4.247"/>
			<path fill="none" stroke="#FFFFFF" stroke-miterlimit="10" d="M19.759,0.5H2.236C1.277,0.5,0.5,1.277,0.5,2.236v15.529
				c0,0.959,0.777,1.736,1.736,1.736h17.523c0.958,0,1.735-0.777,1.735-1.736V2.236C21.494,1.277,20.717,0.5,19.759,0.5z"/>
			<line fill="none" stroke="#FFFFFF" stroke-miterlimit="10" x1="17.801" y1="16.769" x2="11.341" y2="16.769"/>
		</g>
	</g>
</g>
</svg>
