<?xml version="1.0" encoding="UTF-8"?>
<svg id="Capa_2" data-name="Capa 2" xmlns="http://www.w3.org/2000/svg" viewBox="0 0 30 30">
  <g id="content">
    <g>
      <rect y="0" width="30" height="30" rx="6" ry="6" fill="#f8fbff"/>
      <path d="M14.991,23.079c-.311,0-.624-.018-.931-.054-.42-.048-.73-.417-.705-.84,.032-.565-.296-1.092-.817-1.31-.487-.205-1.147-.055-1.504,.339-.285,.314-.765,.351-1.093,.086-.474-.382-.904-.817-1.278-1.293-.257-.325-.219-.8,.088-1.082,.414-.379,.55-.979,.339-1.493-.209-.508-.709-.841-1.234-.827h0c-.391,0-.833-.271-.883-.708-.069-.614-.067-1.232,.004-1.837,.051-.423,.402-.718,.825-.705,.592,0,1.116-.32,1.324-.815,.218-.52,.082-1.125-.338-1.506-.312-.284-.35-.763-.086-1.092,.382-.477,.822-.912,1.307-1.292,.329-.256,.804-.216,1.084,.09,.354,.39,1.011,.54,1.495,.342,.513-.21,.845-.728,.826-1.289-.014-.416,.298-.776,.711-.822,.602-.067,1.213-.065,1.818,.005,.42,.049,.73,.418,.705,.84-.032,.565,.295,1.092,.815,1.311,.488,.203,1.149,.055,1.504-.339,.283-.314,.763-.352,1.092-.088,.471,.377,.901,.812,1.28,1.293,.258,.327,.219,.803-.088,1.084-.412,.378-.548,.978-.338,1.493,.206,.502,.698,.826,1.254,.826,.377,0,.814,.271,.863,.709h0c.069,.613,.068,1.231-.004,1.837-.049,.418-.424,.731-.837,.705l-.087-.002c-.524,0-1.021,.329-1.226,.818-.218,.52-.082,1.125,.339,1.506,.313,.284,.351,.763,.086,1.092-.385,.479-.825,.914-1.307,1.292-.334,.258-.799,.219-1.083-.09-.355-.39-1.012-.54-1.497-.342-.513,.21-.845,.728-.825,1.288,.014,.416-.298,.777-.711,.823-.293,.033-.591,.049-.887,.049Zm.021-5.121c-1.622,0-2.941-1.319-2.941-2.941s1.319-2.941,2.941-2.941,2.941,1.32,2.941,2.941-1.319,2.941-2.941,2.941Z" fill="none" stroke="#b3b3c0" stroke-linejoin="round"/>
    </g>
  </g>
</svg>