<?xml version="1.0" encoding="UTF-8"?>
<svg id="Capa_2" data-name="Capa 2" xmlns="http://www.w3.org/2000/svg" viewBox="0 0 160 160">
  <g id="content">
    <g>
      <rect width="160" height="160" rx="11.19" ry="11.19" fill="#98a0ff"/>
      <g>
        <g>
          <path d="M52.196,54.625v-9.327c0-2.909,2.366-5.275,5.275-5.275h27.823c.342,0,.678,.139,.92,.381l15.899,15.899c.239,.239,.381,.582,.381,.92v25.456" fill="none" stroke="#fff" stroke-miterlimit="10" stroke-width="2"/>
          <path d="M86.588,52.427c0,1.956,1.591,3.547,3.547,3.547h11.65l-15.197-15.197v11.651h0Z" fill="none" stroke="#fff" stroke-miterlimit="10" stroke-width="2"/>
        </g>
        <g>
          <g>
            <path d="M91.358,111.421v4.392c0,2.909-2.366,5.275-5.275,5.275H46.335c-2.909,0-5.275-2.366-5.275-5.275V59.9c0-2.909,2.366-5.275,5.275-5.275h27.823c.342,0,.678,.139,.92,.381l15.899,15.899c.239,.239,.381,.582,.381,.92v21.984" fill="none" stroke="#fff" stroke-miterlimit="10" stroke-width="2"/>
            <path d="M75.452,67.029c0,1.956,1.591,3.547,3.547,3.547h11.65l-15.197-15.197v11.651h0Z" fill="none" stroke="#fff" stroke-miterlimit="10" stroke-width="2"/>
          </g>
          <line x1="50.949" y1="87.856" x2="80.591" y2="87.856" fill="none" stroke="#fff" stroke-miterlimit="10" stroke-width="2"/>
          <line x1="50.949" y1="98.173" x2="80.591" y2="98.173" fill="none" stroke="#fff" stroke-miterlimit="10" stroke-width="2"/>
        </g>
        <g>
          <path d="M121.251,72.312c-2.32-2.316-6.077-2.316-8.398,0l-2.102,2.114-22.376,22.365-.048,.048c-.012,.012-.012,.024-.024,.024-.024,.036-.059,.071-.083,.107,0,.012-.012,.012-.012,.024-.024,.036-.035,.059-.059,.095-.012,.012-.012,.023-.023,.036-.012,.036-.024,.059-.036,.095,0,.012-.012,.012-.012,.024l-4.965,14.929c-.146,.425-.035,.896,.285,1.211,.225,.222,.528,.346,.843,.345,.129-.002,.257-.022,.38-.059l14.918-4.977q.012,0,.024-.012c.038-.011,.074-.027,.107-.048,.009-.001,.017-.005,.024-.012,.035-.024,.083-.048,.119-.072,.035-.023,.071-.059,.107-.083,.012-.012,.023-.012,.023-.024,.012-.012,.036-.023,.048-.048l24.479-24.479c2.316-2.32,2.316-6.077,0-8.397l-3.219-3.207Z" fill="none" stroke="#fff" stroke-miterlimit="10" stroke-width="2"/>
          <line x1="110.751" y1="74.426" x2="122.446" y2="85.939" fill="none" stroke="#fff" stroke-miterlimit="10" stroke-width="2"/>
          <line x1="99.919" y1="108.466" x2="88.089" y2="97.219" fill="none" stroke="#fff" stroke-miterlimit="10" stroke-width="2"/>
        </g>
      </g>
    </g>
  </g>
</svg>