<?xml version="1.0" encoding="UTF-8"?>
<svg id="Capa_2" data-name="Capa 2" xmlns="http://www.w3.org/2000/svg" viewBox="0 0 14.33 19.168">
  <g id="content">
    <g>
      <path d="M12.593,1.779h-2.983V.815c0-.449-.366-.815-.815-.815h-3.204c-.45,0-.815,.366-.815,.815v.964H1.74c-.96,0-1.74,.779-1.74,1.737v.694c0,.212,.171,.383,.383,.383h.393v13.295c0,.706,.574,1.28,1.28,1.28H12.273c.708,0,1.284-.574,1.284-1.28V4.593h.39c.212,0,.383-.171,.383-.383v-.694c0-.958-.779-1.737-1.737-1.737h0ZM5.543,.815c0-.027,.022-.048,.049-.048h3.204c.027,0,.048,.022,.048,.048v.964h-3.301V.815Zm7.247,17.072c0,.283-.232,.514-.518,.514H2.056c-.283,0-.513-.23-.513-.514V4.593H12.79v13.295Zm.773-14.061H.767v-.311c0-.535,.437-.97,.974-.97H12.593c.535,0,.97,.435,.97,.97v.311Z" fill="#fff"/>
      <path d="M10.288,16.366c.212,0,.383-.172,.383-.383V7.014c0-.212-.171-.384-.383-.384s-.383,.172-.383,.384V15.983c0,.212,.171,.383,.383,.383h0Z" fill="#fff"/>
      <path d="M7.167,16.366c.212,0,.383-.172,.383-.383V7.014c0-.212-.171-.384-.383-.384s-.383,.172-.383,.384V15.983c0,.212,.171,.383,.383,.383h0Z" fill="#fff"/>
      <path d="M4.044,16.366c.212,0,.383-.172,.383-.383V7.014c0-.212-.171-.384-.383-.384s-.383,.172-.383,.384V15.983c0,.212,.171,.383,.383,.383h0Z" fill="#fff"/>
    </g>
  </g>
</svg>