<?xml version="1.0" encoding="UTF-8"?>
<svg id="Capa_2" data-name="Capa 2" xmlns="http://www.w3.org/2000/svg" viewBox="0 0 130 130">
  <g id="content">
    <g>
      <rect width="130" height="130" rx="6" ry="6" fill="#98a0ff"/>
      <g>
        <g>
          <path d="M105.413,56.19c-2.29-2.286-5.998-2.286-8.288,0l-2.075,2.086-22.086,22.074-.047,.047c-.011,.011-.011,.023-.023,.023-.023,.035-.059,.07-.082,.105,0,.012-.012,.012-.012,.023-.023,.035-.035,.059-.059,.094-.011,.012-.011,.023-.023,.035-.012,.035-.023,.059-.036,.094,0,.011-.011,.011-.011,.023l-4.9,14.735c-.144,.42-.034,.884,.281,1.195,.222,.219,.521,.341,.832,.34,.127-.002,.253-.022,.375-.059l14.724-4.912q.011,0,.023-.011c.037-.011,.073-.027,.105-.047,.009-.001,.017-.005,.024-.011,.035-.023,.082-.047,.117-.071,.035-.023,.07-.058,.106-.082,.012-.012,.023-.012,.023-.023,.012-.012,.036-.023,.047-.047l24.161-24.161c2.286-2.29,2.286-5.998,0-8.288l-3.177-3.165Z" fill="none" stroke="#fff" stroke-miterlimit="10" stroke-width="2"/>
          <line x1="95.05" y1="58.276" x2="106.593" y2="69.64" fill="none" stroke="#fff" stroke-miterlimit="10" stroke-width="2"/>
          <line x1="84.359" y1="91.874" x2="72.682" y2="80.773" fill="none" stroke="#fff" stroke-miterlimit="10" stroke-width="2"/>
        </g>
        <path d="M70.215,88.181H36.916c-2.787,0-5.047-2.26-5.047-5.047V37.98c0-2.787,2.26-5.047,5.047-5.047h50.953c2.787,0,5.047,2.26,5.047,5.047v22.429" fill="none" stroke="#fff" stroke-miterlimit="10" stroke-width="2"/>
        <line x1="31.869" y1="42.167" x2="92.916" y2="42.167" fill="none" stroke="#fff" stroke-miterlimit="10" stroke-width="2"/>
        <line x1="42.607" y1="72.076" x2="68.916" y2="72.076" fill="none" stroke="#fff" stroke-miterlimit="10" stroke-width="2"/>
        <line x1="42.607" y1="80.24" x2="61.391" y2="80.24" fill="none" stroke="#fff" stroke-miterlimit="10" stroke-width="2"/>
        <rect x="42.607" y="51.617" width="39.732" height="12.349" fill="none" stroke="#fff" stroke-miterlimit="10" stroke-width="2"/>
      </g>
    </g>
  </g>
</svg>