<?xml version="1.0" encoding="UTF-8"?>
<svg id="Capa_2" data-name="Capa 2" xmlns="http://www.w3.org/2000/svg" viewBox="0 0 18.996 19">
  <g id="content">
    <path d="M.549,19c-.147,0-.285-.057-.388-.161-.139-.14-.193-.345-.141-.535l1.536-5.547c.025-.091,.074-.175,.141-.242L13.381,.832c.537-.537,1.25-.832,2.009-.832s1.472,.296,2.009,.832l.769,.768c1.105,1.108,1.105,2.91,0,4.018L6.484,17.302c-.067,.067-.151,.116-.242,.141l-5.547,1.537c-.048,.013-.097,.02-.146,.02h0Zm.788-1.337l3.764-1.043-2.721-2.721-1.043,3.764Zm1.562-4.797l3.234,3.234L15.845,6.388l-3.234-3.234L2.899,12.867ZM15.39,1.098c-.466,0-.903,.181-1.233,.51l-.77,.77,3.234,3.234,.769-.769c.678-.68,.678-1.786,0-2.466l-.769-.769c-.329-.329-.767-.51-1.233-.51Z" fill="#0551d7"/>
  </g>
</svg>