<?xml version="1.0" encoding="UTF-8"?>
<svg id="Capa_2" data-name="Capa 2" xmlns="http://www.w3.org/2000/svg" viewBox="0 0 160 160">
  <g id="Capa_1-2" data-name="Capa 1">
    <g>
      <rect width="160" height="160" rx="11.19" ry="11.19" fill="#aeaeae"/>
      <g>
        <g>
          <path d="M55.759,120.532c-3.548,0-6.434-2.886-6.434-6.434V45.901c0-3.548,2.886-6.434,6.434-6.434h33.936c.418,0,.826,.169,1.122,.465l19.392,19.392c.291,.291,.465,.71,.465,1.122v53.652c0,3.548-2.886,6.434-6.434,6.434H55.759Z" fill="none" stroke="#fff" stroke-linejoin="round" stroke-width="2"/>
          <path d="M91.273,54.596c0,2.385,1.941,4.326,4.326,4.326h14.21l-18.536-18.536v14.211h0Z" fill="none" stroke="#fff" stroke-linejoin="round" stroke-width="2"/>
        </g>
        <line x1="61.387" y1="80" x2="97.542" y2="80" fill="none" stroke="#fff" stroke-linejoin="round" stroke-width="2"/>
        <line x1="61.387" y1="92.584" x2="97.542" y2="92.584" fill="none" stroke="#fff" stroke-linejoin="round" stroke-width="2"/>
      </g>
    </g>
  </g>
</svg>