<?xml version="1.0" encoding="UTF-8"?>
<svg id="Capa_2" data-name="Capa 2" xmlns="http://www.w3.org/2000/svg" viewBox="0 0 20.67 19">
  <g id="content">
    <g>
      <path d="M5.847,15.207c-.102-.046-.186-.13-.232-.237l-.763-1.774c-1.55-3.602,.12-7.793,3.722-9.342l.665-.286L7.981,.642c-.075-.175-.035-.377,.1-.511,.136-.133,.339-.169,.512-.091l7.532,3.41h.001c.216,.099,.322,.346,.244,.57l-2.704,7.814c-.062,.18-.228,.303-.418,.31-.19,.007-.365-.103-.44-.278l-1.258-2.925c-2.258,1.009-4.012,2.92-4.822,5.26l-.255,.738c-.062,.18-.228,.302-.418,.309-.073,.003-.144-.012-.208-.041ZM9.296,1.37l.971,2.257c.048,.112,.05,.239,.005,.352-.045,.113-.134,.204-.246,.253l-1.088,.468c-3.135,1.349-4.589,4.997-3.24,8.132l.299,.694c.962-2.452,2.877-4.436,5.305-5.481l.308-.133c.234-.101,.504,.007,.605,.241l.971,2.257,2.178-6.294L9.296,1.37Z" fill="#0551d7"/>
      <path d="M20.209,19H.46c-.254,0-.46-.206-.46-.46V9.323c0-.254,.206-.46,.46-.46s.46,.206,.46,.46v8.756H19.749V9.323c0-.254,.206-.46,.46-.46s.46,.206,.46,.46v9.216c0,.254-.206,.46-.46,.46Z" fill="#0551d7"/>
    </g>
  </g>
</svg>