<?xml version="1.0" encoding="UTF-8"?>
<svg id="Capa_2" data-name="Capa 2" xmlns="http://www.w3.org/2000/svg" viewBox="0 0 30 30">
  <g id="content">
    <g>
      <rect y="0" width="30" height="30" rx="6" ry="6" fill="#0551d7"/>
      <g>
        <path d="M16.936,7.209c1.861,.118,3.542,1.07,4.608,2.603l-4.608,2.785V7.209m-.395-1.013c-.339,0-.605,.274-.605,.605v6.501c0,.218,.113,.419,.307,.524,.088,.056,.193,.081,.298,.081s.218-.032,.306-.089l5.565-3.363c.137-.081,.234-.218,.274-.371,.041-.161,.008-.323-.073-.46-1.307-2.146-3.573-3.428-6.073-3.428h0Z" fill="#fff"/>
        <path d="M22.745,13.642c.464,.883,.708,1.856,.708,2.838,0,1.448-.514,2.832-1.466,3.952l-4.021-3.896,4.779-2.895m.144-1.157c-.108,0-.217,.03-.315,.091l-5.565,3.371c-.153,.097-.266,.258-.282,.443-.024,.186,.04,.379,.177,.508l4.678,4.533c.113,.113,.266,.169,.427,.169h.008c.161,0,.314-.064,.419-.177,1.298-1.339,2.017-3.097,2.017-4.944,0-1.299-.371-2.589-1.049-3.702-.116-.189-.313-.293-.515-.293h0Z" fill="#fff"/>
        <path d="M12.677,10.151v5.966c0,.27,.109,.529,.303,.717l4.298,4.173c-1.191,1.16-2.749,1.797-4.408,1.797-3.487,0-6.324-2.837-6.324-6.324,0-3.426,2.732-6.226,6.13-6.329m.193-1.003c-4.041,0-7.324,3.283-7.324,7.332s3.283,7.324,7.324,7.324c2,0,3.872-.799,5.267-2.242,.306-.323,.298-.831-.024-1.137l-4.436-4.307v-6.162c0-.444-.363-.807-.807-.807h0Z" fill="#fff"/>
      </g>
    </g>
  </g>
</svg>