<?xml version="1.0" encoding="UTF-8"?>
<svg id="Capa_2" data-name="Capa 2" xmlns="http://www.w3.org/2000/svg" viewBox="0 0 30 30">
  <g id="content">
    <g>
      <rect y="0" width="30" height="30" rx="6" ry="6" fill="#f8fbff"/>
      <g>
        <g>
          <path d="M9.657,8.758v-2.245c0-.7,.57-1.27,1.27-1.27h6.698c.082,0,.163,.033,.221,.092l3.827,3.827c.057,.057,.092,.14,.092,.221v6.128" fill="none" stroke="#b3b3c0" stroke-linejoin="round"/>
          <path d="M17.936,8.228c0,.471,.383,.854,.854,.854h2.805l-3.658-3.659v2.805h0Z" fill="none" stroke="#b3b3c0" stroke-linejoin="round"/>
        </g>
        <g>
          <g>
            <path d="M19.085,22.43v1.057c0,.7-.57,1.27-1.27,1.27H8.246c-.7,0-1.27-.57-1.27-1.27V10.028c0-.7,.57-1.27,1.27-1.27h6.698c.082,0,.163,.033,.221,.092l3.827,3.827c.057,.057,.092,.14,.092,.221v5.292" fill="none" stroke="#b3b3c0" stroke-linejoin="round"/>
            <path d="M15.255,11.744c0,.471,.383,.854,.854,.854h2.805l-3.658-3.659v2.805h0Z" fill="none" stroke="#b3b3c0" stroke-linejoin="round"/>
          </g>
          <line x1="9.357" y1="16.758" x2="16.493" y2="16.758" fill="none" stroke="#b3b3c0" stroke-linejoin="round"/>
          <line x1="9.357" y1="19.241" x2="16.493" y2="19.241" fill="none" stroke="#b3b3c0" stroke-linejoin="round"/>
        </g>
        <g>
          <path d="M26.281,13.016c-.559-.558-1.463-.558-2.022,0l-.506,.509-5.387,5.384-.011,.012s-.003,.006-.006,.006c-.006,.009-.014,.017-.02,.026,0,.003-.003,.003-.003,.006-.006,.009-.008,.014-.014,.023-.003,.003-.003,.006-.006,.009-.003,.009-.006,.014-.009,.023,0,.003-.003,.003-.003,.006l-1.195,3.594c-.035,.102-.008,.216,.069,.292,.054,.053,.127,.083,.203,.083,.031,0,.062-.005,.091-.014l3.591-1.198s.003,0,.006-.003c.009-.003,.018-.007,.026-.012,.002,0,.004-.001,.006-.003,.008-.006,.02-.012,.029-.017,.008-.006,.017-.014,.026-.02,.003-.003,.006-.003,.006-.006,.003-.003,.009-.006,.012-.011l5.893-5.893c.558-.559,.558-1.463,0-2.022l-.775-.772Z" fill="none" stroke="#b3b3c0" stroke-linejoin="round"/>
          <line x1="23.753" y1="13.524" x2="26.569" y2="16.296" fill="none" stroke="#b3b3c0" stroke-linejoin="round"/>
          <line x1="21.146" y1="21.719" x2="18.298" y2="19.011" fill="none" stroke="#b3b3c0" stroke-linejoin="round"/>
        </g>
      </g>
    </g>
  </g>
</svg>