<?xml version="1.0" encoding="UTF-8"?>
<svg id="Capa_2" data-name="Capa 2" xmlns="http://www.w3.org/2000/svg" viewBox="0 0 13.752 14.223">
  <g id="content">
    <path d="M11.898,9.881l1.854,1.886c-.6,.799-1.341,1.408-2.223,1.827-.882,.419-1.869,.629-2.961,.629-1.044,0-2.013-.203-2.907-.609-.894-.406-1.653-.983-2.277-1.729-.624-.747-1.074-1.612-1.35-2.593H0v-1.65H1.764c-.012-.118-.018-.294-.018-.53s.006-.412,.018-.53H0v-1.65H2.034c.276-.983,.726-1.847,1.35-2.593,.624-.746,1.383-1.322,2.277-1.729,.894-.406,1.863-.609,2.907-.609,1.092,0,2.079,.21,2.961,.629,.882,.42,1.623,1.021,2.223,1.807l-1.854,1.886c-.876-1.074-1.938-1.611-3.186-1.611-.792,0-1.5,.196-2.124,.589-.624,.393-1.104,.936-1.44,1.63h4.554v1.65H4.698c-.012,.118-.018,.294-.018,.53s.006,.412,.018,.53h5.004v1.65H5.148c.336,.694,.816,1.238,1.44,1.63,.624,.393,1.332,.589,2.124,.589,1.26,0,2.322-.543,3.186-1.63Z" fill="#0551d7"/>
  </g>
</svg>