<?xml version="1.0" encoding="UTF-8"?>
<svg id="Capa_2" data-name="Capa 2" xmlns="http://www.w3.org/2000/svg" viewBox="0 0 40 40">
  <g id="content">
    <g>
      <rect x="0" width="40" height="40" rx="5" ry="5" fill="#ffebf6"/>
      <g>
        <path d="M25.428,12.195h-2.983v-.964c0-.449-.366-.815-.815-.815h-3.204c-.45,0-.815,.366-.815,.815v.964h-3.036c-.96,0-1.74,.779-1.74,1.737v.694c0,.212,.171,.383,.383,.383h.393v13.295c0,.706,.574,1.28,1.28,1.28h10.217c.708,0,1.284-.574,1.284-1.28V15.009h.39c.212,0,.383-.171,.383-.383v-.694c0-.958-.779-1.737-1.737-1.737h0Zm-7.05-.964c0-.027,.022-.048,.049-.048h3.204c.027,0,.048,.022,.048,.048v.964h-3.301v-.964Zm7.247,17.072c0,.283-.232,.514-.518,.514H14.891c-.283,0-.513-.23-.513-.514V15.009h11.247v13.295Zm.773-14.061H13.602v-.311c0-.535,.437-.97,.974-.97h10.853c.535,0,.97,.435,.97,.97v.311Z" fill="#ff0c51"/>
        <path d="M23.123,26.782c.212,0,.383-.172,.383-.383v-8.969c0-.212-.171-.384-.383-.384s-.383,.172-.383,.384v8.969c0,.212,.171,.383,.383,.383h0Z" fill="#ff0c51"/>
        <path d="M20.002,26.782c.212,0,.383-.172,.383-.383v-8.969c0-.212-.171-.384-.383-.384s-.383,.172-.383,.384v8.969c0,.212,.171,.383,.383,.383h0Z" fill="#ff0c51"/>
        <path d="M16.879,26.782c.212,0,.383-.172,.383-.383v-8.969c0-.212-.171-.384-.383-.384s-.383,.172-.383,.384v8.969c0,.212,.171,.383,.383,.383h0Z" fill="#ff0c51"/>
      </g>
    </g>
  </g>
</svg>