<?xml version="1.0" encoding="UTF-8"?>
<svg id="Capa_2" data-name="Capa 2" xmlns="http://www.w3.org/2000/svg" viewBox="0 0 139.247 44">
  <g id="content">
    <g>
      <path d="M60.982,29.388c-.951-.446-2.072-.669-3.363-.669h-6.309v15.108h3.373v-4.165h2.936c1.291,0,2.412-.219,3.363-.658,.951-.439,1.683-1.072,2.197-1.899,.513-.827,.77-1.795,.77-2.903,0-1.122-.257-2.094-.77-2.914-.514-.82-1.246-1.453-2.197-1.899Zm-1.239,6.745c-.528,.453-1.298,.68-2.311,.68h-2.749v-5.244h2.749c1.013,0,1.783,.226,2.311,.68,.527,.453,.791,1.104,.791,1.953,0,.834-.264,1.478-.791,1.931Z" fill="#fff"/>
      <path d="M73.864,32.777c-.889-.489-1.881-.734-2.978-.734-1.124,0-2.141,.256-3.05,.766-.909,.511-1.624,1.223-2.145,2.136-.52,.914-.781,1.939-.781,3.076,0,1.152,.264,2.18,.791,3.086,.527,.907,1.277,1.615,2.249,2.126,.972,.511,2.089,.766,3.352,.766,2.026,0,3.567-.626,4.623-1.878l-1.728-1.942c-.389,.389-.809,.673-1.26,.852-.451,.18-.968,.27-1.551,.27-.847,0-1.555-.209-2.124-.626-.569-.417-.93-.985-1.083-1.705h8.474c.042-.561,.062-.863,.062-.906,0-1.209-.253-2.27-.76-3.184-.507-.913-1.204-1.615-2.092-2.104Zm-5.726,4.23c.111-.748,.416-1.338,.916-1.77s1.117-.647,1.853-.647c.721,0,1.333,.22,1.832,.658,.5,.439,.805,1.025,.916,1.759h-5.518Z" fill="#fff"/>
      <rect x="79.232" y="27.813" width="3.248" height="16.014" fill="#fff"/>
      <path d="M93.849,33.446c-.805-.935-1.923-1.403-3.352-1.403-1.055,0-2.009,.245-2.863,.734-.854,.489-1.523,1.187-2.009,2.093-.486,.907-.729,1.957-.729,3.151s.243,2.245,.729,3.151c.486,.907,1.155,1.605,2.009,2.094,.854,.489,1.808,.734,2.863,.734,1.527,0,2.693-.503,3.498-1.511v1.338h3.102V27.813h-3.248v5.633Zm-.749,6.917c-.542,.583-1.222,.874-2.04,.874-.833,0-1.52-.291-2.061-.874s-.812-1.363-.812-2.342,.271-1.759,.812-2.342,1.228-.874,2.061-.874c.819,0,1.499,.291,2.04,.874,.541,.583,.812,1.364,.812,2.342s-.271,1.759-.812,2.342Z" fill="#fff"/>
      <path d="M104.966,32.043c-.929,0-1.833,.122-2.711,.367-.879,.245-1.632,.59-2.261,1.036l1.2,2.353c.414-.331,.918-.594,1.511-.788,.593-.194,1.196-.291,1.811-.291,.886,0,1.55,.198,1.993,.594,.442,.396,.664,.96,.664,1.694h-2.658c-1.686,0-2.933,.31-3.74,.928-.807,.619-1.211,1.467-1.211,2.547,0,.676,.172,1.281,.514,1.813,.343,.533,.839,.95,1.49,1.252,.65,.302,1.418,.453,2.304,.453,1.715,0,2.886-.54,3.515-1.619v1.446h3.129v-6.626c0-1.727-.479-3.018-1.436-3.874-.957-.856-2.329-1.284-4.115-1.284Zm2.207,8.115c-.186,.518-.5,.91-.943,1.176-.443,.266-.95,.399-1.522,.399-.586,0-1.047-.126-1.382-.378-.336-.252-.504-.594-.504-1.025,0-.907,.686-1.36,2.058-1.36h2.293v1.187Z" fill="#fff"/>
      <path d="M120.515,32.043c-.764,0-1.465,.133-2.103,.399-.639,.266-1.173,.644-1.603,1.133v-1.36h-3.102v11.611h3.248v-5.741c0-1.036,.242-1.816,.729-2.342,.486-.525,1.138-.788,1.957-.788,.735,0,1.298,.227,1.687,.68,.388,.453,.583,1.14,.583,2.061v6.129h3.248v-6.647c0-1.698-.427-2.978-1.281-3.842-.854-.863-1.975-1.295-3.363-1.295Z" fill="#fff"/>
      <path d="M117.496,29.498c.165-.228,.382-.343,.65-.343,.127,0,.258,.047,.391,.142,.134,.095,.303,.237,.507,.426,.318,.284,.608,.508,.869,.674,.261,.166,.564,.248,.908,.248,.662,0,1.194-.307,1.596-.922,.401-.615,.614-1.435,.64-2.46h-1.51c-.013,.394-.105,.706-.277,.935-.172,.229-.385,.343-.64,.343-.127,0-.258-.047-.392-.142-.134-.095-.303-.237-.506-.426-.331-.299-.627-.532-.888-.698-.261-.166-.558-.248-.889-.248-.662,0-1.194,.312-1.595,.935-.401,.623-.615,1.463-.64,2.519h1.51c.012-.426,.102-.753,.268-.982Z" fill="#fff"/>
      <path d="M138.456,34.935c-.528-.907-1.256-1.615-2.186-2.126-.93-.511-1.985-.766-3.165-.766s-2.238,.256-3.175,.766c-.937,.511-1.669,1.219-2.197,2.126-.528,.906-.791,1.935-.791,3.086s.263,2.18,.791,3.086c.528,.907,1.26,1.615,2.197,2.126,.937,.511,1.995,.766,3.175,.766s2.235-.255,3.165-.766c.93-.511,1.659-1.219,2.186-2.126,.528-.906,.791-1.935,.791-3.086s-.264-2.18-.791-3.086Zm-3.3,5.428c-.534,.583-1.218,.874-2.051,.874s-1.52-.291-2.061-.874c-.541-.583-.812-1.363-.812-2.342s.271-1.759,.812-2.342c.542-.583,1.229-.874,2.061-.874s1.517,.291,2.051,.874,.802,1.364,.802,2.342-.267,1.759-.802,2.342Z" fill="#fff"/>
      <polygon points=".072 0 0 0 0 21.841 .072 21.841 .072 43.827 21.914 43.827 21.914 21.841 43.827 21.841 43.827 0 21.914 0 .072 0" fill="#fff"/>
    </g>
  </g>
</svg>