<?xml version="1.0" encoding="UTF-8"?>
<svg id="Capa_2" data-name="Capa 2" xmlns="http://www.w3.org/2000/svg" viewBox="0 0 200 63.197">
  <g id="Capa_1-2" data-name="Capa 1">
    <g>
      <path d="M87.588,42.21c-1.366-.64-2.976-.961-4.83-.961h-9.061v21.7h4.845v-5.983h4.217c1.854,0,3.464-.315,4.83-.945,1.365-.63,2.417-1.539,3.155-2.728,.737-1.188,1.106-2.578,1.106-4.169,0-1.612-.369-3.007-1.106-4.185-.738-1.178-1.79-2.087-3.155-2.728Zm-1.779,9.687c-.758,.651-1.864,.977-3.319,.977h-3.948v-7.533h3.948c1.455,0,2.561,.325,3.319,.976,.757,.651,1.137,1.586,1.137,2.806,0,1.198-.379,2.123-1.137,2.774Z" fill="#fff"/>
      <path d="M106.09,47.077c-1.276-.702-2.702-1.054-4.277-1.054-1.615,0-3.076,.367-4.381,1.101-1.306,.734-2.333,1.757-3.08,3.069-.748,1.313-1.121,2.785-1.121,4.417,0,1.654,.379,3.131,1.137,4.433,.757,1.302,1.834,2.32,3.23,3.053,1.395,.734,3,1.101,4.815,1.101,2.911,0,5.123-.899,6.639-2.697l-2.482-2.79c-.558,.558-1.162,.966-1.809,1.224-.648,.259-1.391,.388-2.228,.388-1.216,0-2.233-.3-3.05-.899-.818-.599-1.336-1.415-1.555-2.449h12.172c.06-.806,.09-1.24,.09-1.302,0-1.736-.364-3.26-1.091-4.573-.728-1.312-1.73-2.32-3.005-3.022Zm-8.224,6.076c.159-1.074,.598-1.922,1.316-2.542s1.605-.93,2.662-.93c1.036,0,1.914,.315,2.632,.945,.718,.631,1.156,1.472,1.316,2.526h-7.925Z" fill="#fff"/>
      <rect x="113.801" y="39.948" width="4.665" height="23.001" fill="#fff"/>
      <path d="M134.795,48.038c-1.156-1.343-2.762-2.015-4.815-2.015-1.515,0-2.886,.352-4.112,1.054-1.226,.703-2.188,1.705-2.886,3.007-.698,1.302-1.047,2.811-1.047,4.526s.349,3.224,1.047,4.526c.698,1.302,1.659,2.305,2.886,3.007,1.226,.703,2.597,1.054,4.112,1.054,2.193,0,3.867-.723,5.024-2.17v1.922h4.456v-23.001h-4.665v8.091Zm-1.076,9.935c-.778,.837-1.755,1.255-2.931,1.255-1.197,0-2.183-.418-2.961-1.255s-1.167-1.958-1.167-3.363,.389-2.526,1.167-3.363,1.764-1.255,2.961-1.255c1.176,0,2.153,.419,2.931,1.255,.777,.837,1.166,1.959,1.166,3.363s-.389,2.526-1.166,3.363Z" fill="#fff"/>
      <path d="M150.762,46.023c-1.334,0-2.632,.176-3.894,.527-1.262,.352-2.345,.848-3.248,1.488l1.724,3.379c.595-.475,1.318-.853,2.17-1.132,.851-.279,1.718-.418,2.601-.418,1.272,0,2.227,.285,2.863,.853,.635,.569,.954,1.38,.954,2.434h-3.817c-2.422,0-4.213,.445-5.372,1.333-1.159,.889-1.739,2.107-1.739,3.658,0,.971,.246,1.839,.739,2.604,.492,.765,1.205,1.364,2.14,1.798,.934,.434,2.036,.651,3.309,.651,2.463,0,4.145-.775,5.048-2.325v2.077h4.495v-9.517c0-2.48-.688-4.335-2.062-5.565-1.375-1.229-3.345-1.844-5.91-1.844Zm3.171,11.656c-.267,.744-.719,1.308-1.355,1.689-.636,.382-1.365,.574-2.186,.574-.842,0-1.503-.181-1.986-.543-.482-.362-.723-.853-.723-1.472,0-1.302,.985-1.953,2.955-1.953h3.294v1.705Z" fill="#fff"/>
      <path d="M173.095,46.023c-1.097,0-2.104,.191-3.02,.574-.917,.382-1.685,.925-2.303,1.627v-1.953h-4.456v16.677h4.665v-8.246c0-1.488,.348-2.609,1.046-3.363,.698-.754,1.635-1.131,2.811-1.131,1.056,0,1.864,.326,2.422,.977,.558,.651,.837,1.638,.837,2.96v8.804h4.665v-9.548c0-2.438-.613-4.278-1.839-5.518-1.226-1.24-2.836-1.86-4.83-1.86Z" fill="#fff"/>
      <path d="M168.759,42.368c.237-.328,.549-.492,.933-.492,.183,0,.371,.068,.562,.204,.192,.136,.435,.34,.728,.612,.457,.407,.873,.73,1.248,.968,.375,.238,.81,.357,1.304,.357,.951,0,1.715-.442,2.292-1.325,.576-.884,.882-2.061,.919-3.534h-2.168c-.019,.566-.151,1.014-.398,1.342-.247,.329-.554,.492-.919,.492-.183,0-.371-.068-.563-.204-.192-.136-.435-.34-.727-.612-.476-.43-.901-.764-1.276-1.002-.375-.238-.801-.357-1.277-.357-.951,0-1.715,.447-2.291,1.342-.576,.895-.883,2.101-.919,3.618h2.168c.018-.611,.146-1.081,.384-1.41Z" fill="#fff"/>
      <path d="M198.863,50.178c-.758-1.302-1.805-2.32-3.14-3.053-1.336-.733-2.851-1.101-4.546-1.101s-3.215,.367-4.561,1.101c-1.345,.734-2.397,1.751-3.155,3.053-.758,1.302-1.136,2.779-1.136,4.432s.378,3.131,1.136,4.433c.758,1.302,1.81,2.32,3.155,3.053,1.346,.734,2.866,1.101,4.561,1.101s3.21-.367,4.546-1.101c1.336-.733,2.382-1.751,3.14-3.053,.758-1.302,1.137-2.779,1.137-4.433s-.379-3.131-1.137-4.432Zm-4.74,7.796c-.768,.837-1.75,1.255-2.946,1.255s-2.183-.418-2.961-1.255c-.777-.837-1.166-1.958-1.166-3.363s.389-2.526,1.166-3.363c.778-.837,1.765-1.255,2.961-1.255s2.178,.419,2.946,1.255,1.152,1.959,1.152,3.363-.384,2.526-1.152,3.363Z" fill="#fff"/>
      <polygon points=".104 0 0 0 0 31.371 .104 31.371 .104 62.949 31.474 62.949 31.474 31.371 62.949 31.371 62.949 0 31.474 0 .104 0" fill="#fff"/>
    </g>
  </g>
</svg>