<svg xmlns="http://www.w3.org/2000/svg" viewBox="0 0 29.25 29.25"><title>Recurso 29x1</title><g id="Capa_2" data-name="Capa 2"><g id="Capa_1-2" data-name="Capa 1"><rect width="29.25" height="29.25" rx="5.46" fill="none"/><path d="M21.991,12.529l-1.013,10.8a2.131,2.131,0,0,1-2.124,1.955H11.1a2.132,2.132,0,0,1-2.125-1.955l-1.012-10.8Z" fill="#45c4b0"/><line x1="23.516" y1="8.61" x2="5.734" y2="8.61" fill="none" stroke="#45c4b0" stroke-linecap="round" stroke-linejoin="round" stroke-width="2"/><path d="M13.022,3.964h3.206a1.767,1.767,0,0,1,1.767,1.767V8.61a0,0,0,0,1,0,0h-6.74a0,0,0,0,1,0,0V5.731A1.767,1.767,0,0,1,13.022,3.964Z" fill="#45c4b0"/></g></g></svg>